# xmcd
#
# Track frame offsets: 
#        150
#        13440
#        28252
#        38945
#        53055
#        66020
#        76160
#        91522
#        103997
#        117857
#        128272
#        140155
#        150432
#        161787
#
# Disc length: 2288 seconds
#
# Revision: 0
# Processed by: cddbd v1.5PL3 Copyright (c) Steve Scherf et al.
# Submitted via: ExactAudioCopy v0.95a4
#
DISCID=b208ee0e
DTITLE=Kenny Rogers and The First Edition - The Hits and More [CD 2)
DYEAR=2001
DGENRE=Country
TTITLE0=But You Know I Love You
TTITLE1=Heed the Call
TTITLE2=We All Got to Help Each Other
TTITLE3=It's Raining in My Mind
TTITLE4=Run Thru Your Mind
TTITLE5=Where Does Rosie Go
TTITLE6=Tulsa Turnaround
TTITLE7=Love Woman
TTITLE8=Loser
TTITLE9=Ticket to Nowhere
TTITLE10=What Am I Gonna Do
TTITLE11=Good Time Liberator
TTITLE12=If Wishes Were Horses
TTITLE13=Once Again She's All Alone
EXTD=
EXTT0=
EXTT1=
EXTT2=
EXTT3=
EXTT4=
EXTT5=
EXTT6=
EXTT7=
EXTT8=
EXTT9=
EXTT10=
EXTT11=
EXTT12=
EXTT13=
PLAYORDER=
